<mxfile host="app.diagrams.net" modified="2022-03-11T04:21:10.793Z" agent="5.0 (Windows NT 10.0; Win64; x64) AppleWebKit/537.36 (KHTML, like Gecko) Chrome/99.0.4844.51 Safari/537.36" etag="xF6j3Fuc1UciJq9NQhFn" version="17.1.1" type="github">
  <diagram id="g7BLdBiNhPiLhWnyzqMF" name="Nenti">
    <mxGraphModel dx="2234" dy="1819" grid="1" gridSize="10" guides="1" tooltips="1" connect="1" arrows="1" fold="1" page="1" pageScale="1" pageWidth="850" pageHeight="1100" math="0" shadow="0">
      <root>
        <mxCell id="UbFrmfJ1SRvg7pQfTYkt-0" />
        <mxCell id="UbFrmfJ1SRvg7pQfTYkt-1" parent="UbFrmfJ1SRvg7pQfTYkt-0" />
        <mxCell id="UbFrmfJ1SRvg7pQfTYkt-2" value="Santri" style="rounded=0;whiteSpace=wrap;html=1;fillColor=#dae8fc;strokeColor=#6c8ebf;" parent="UbFrmfJ1SRvg7pQfTYkt-1" vertex="1">
          <mxGeometry y="157.5" width="120" height="60" as="geometry" />
        </mxCell>
        <mxCell id="UbFrmfJ1SRvg7pQfTYkt-3" value="Nama" style="ellipse;whiteSpace=wrap;html=1;align=center;fillColor=#d5e8d4;strokeColor=#82b366;" parent="UbFrmfJ1SRvg7pQfTYkt-1" vertex="1">
          <mxGeometry x="-110" y="95" width="100" height="40" as="geometry" />
        </mxCell>
        <mxCell id="UbFrmfJ1SRvg7pQfTYkt-4" value="Usia" style="ellipse;whiteSpace=wrap;html=1;align=center;fillColor=#d5e8d4;strokeColor=#82b366;" parent="UbFrmfJ1SRvg7pQfTYkt-1" vertex="1">
          <mxGeometry x="-60" y="40" width="100" height="40" as="geometry" />
        </mxCell>
        <mxCell id="UbFrmfJ1SRvg7pQfTYkt-5" value="Kontak" style="ellipse;whiteSpace=wrap;html=1;align=center;fillColor=#d5e8d4;strokeColor=#82b366;" parent="UbFrmfJ1SRvg7pQfTYkt-1" vertex="1">
          <mxGeometry x="80" y="40" width="100" height="40" as="geometry" />
        </mxCell>
        <mxCell id="UbFrmfJ1SRvg7pQfTYkt-6" value="Hafalan" style="ellipse;whiteSpace=wrap;html=1;align=center;fillColor=#d5e8d4;strokeColor=#82b366;" parent="UbFrmfJ1SRvg7pQfTYkt-1" vertex="1">
          <mxGeometry x="10" y="-10" width="100" height="40" as="geometry" />
        </mxCell>
        <mxCell id="UbFrmfJ1SRvg7pQfTYkt-8" value="" style="endArrow=none;html=1;rounded=0;exitX=0.64;exitY=1;exitDx=0;exitDy=0;exitPerimeter=0;entryX=0.5;entryY=0;entryDx=0;entryDy=0;" parent="UbFrmfJ1SRvg7pQfTYkt-1" source="UbFrmfJ1SRvg7pQfTYkt-3" target="UbFrmfJ1SRvg7pQfTYkt-2" edge="1">
          <mxGeometry relative="1" as="geometry">
            <mxPoint x="80" y="360" as="sourcePoint" />
            <mxPoint x="240" y="360" as="targetPoint" />
          </mxGeometry>
        </mxCell>
        <mxCell id="UbFrmfJ1SRvg7pQfTYkt-9" value="" style="endArrow=none;html=1;rounded=0;exitX=0.5;exitY=1;exitDx=0;exitDy=0;entryX=0.5;entryY=0;entryDx=0;entryDy=0;" parent="UbFrmfJ1SRvg7pQfTYkt-1" source="UbFrmfJ1SRvg7pQfTYkt-4" target="UbFrmfJ1SRvg7pQfTYkt-2" edge="1">
          <mxGeometry relative="1" as="geometry">
            <mxPoint x="-16" y="150" as="sourcePoint" />
            <mxPoint x="70" y="180" as="targetPoint" />
          </mxGeometry>
        </mxCell>
        <mxCell id="UbFrmfJ1SRvg7pQfTYkt-10" value="" style="endArrow=none;html=1;rounded=0;exitX=0.5;exitY=1;exitDx=0;exitDy=0;entryX=0.5;entryY=0;entryDx=0;entryDy=0;" parent="UbFrmfJ1SRvg7pQfTYkt-1" source="UbFrmfJ1SRvg7pQfTYkt-6" target="UbFrmfJ1SRvg7pQfTYkt-2" edge="1">
          <mxGeometry relative="1" as="geometry">
            <mxPoint y="70" as="sourcePoint" />
            <mxPoint x="70" y="180" as="targetPoint" />
          </mxGeometry>
        </mxCell>
        <mxCell id="UbFrmfJ1SRvg7pQfTYkt-11" value="" style="endArrow=none;html=1;rounded=0;exitX=0.5;exitY=0;exitDx=0;exitDy=0;entryX=0.305;entryY=1.005;entryDx=0;entryDy=0;entryPerimeter=0;" parent="UbFrmfJ1SRvg7pQfTYkt-1" source="UbFrmfJ1SRvg7pQfTYkt-2" target="UbFrmfJ1SRvg7pQfTYkt-5" edge="1">
          <mxGeometry relative="1" as="geometry">
            <mxPoint x="80" y="360" as="sourcePoint" />
            <mxPoint x="240" y="360" as="targetPoint" />
          </mxGeometry>
        </mxCell>
        <mxCell id="UbFrmfJ1SRvg7pQfTYkt-12" value="Pembimbing" style="rounded=0;whiteSpace=wrap;html=1;fillColor=#dae8fc;strokeColor=#6c8ebf;" parent="UbFrmfJ1SRvg7pQfTYkt-1" vertex="1">
          <mxGeometry x="840" y="157.5" width="120" height="60" as="geometry" />
        </mxCell>
        <mxCell id="UbFrmfJ1SRvg7pQfTYkt-13" value="Kelas" style="rounded=0;whiteSpace=wrap;html=1;fillColor=#dae8fc;strokeColor=#6c8ebf;" parent="UbFrmfJ1SRvg7pQfTYkt-1" vertex="1">
          <mxGeometry x="425" y="330" width="120" height="60" as="geometry" />
        </mxCell>
        <mxCell id="UbFrmfJ1SRvg7pQfTYkt-14" value="ID" style="ellipse;whiteSpace=wrap;html=1;align=center;fillColor=#d5e8d4;strokeColor=#82b366;" parent="UbFrmfJ1SRvg7pQfTYkt-1" vertex="1">
          <mxGeometry x="335" y="410" width="100" height="40" as="geometry" />
        </mxCell>
        <mxCell id="UbFrmfJ1SRvg7pQfTYkt-16" value="" style="endArrow=none;html=1;rounded=0;entryX=0.5;entryY=1;entryDx=0;entryDy=0;exitX=0.5;exitY=0;exitDx=0;exitDy=0;" parent="UbFrmfJ1SRvg7pQfTYkt-1" source="UbFrmfJ1SRvg7pQfTYkt-14" target="UbFrmfJ1SRvg7pQfTYkt-13" edge="1">
          <mxGeometry relative="1" as="geometry">
            <mxPoint x="440" y="290" as="sourcePoint" />
            <mxPoint x="600" y="290" as="targetPoint" />
          </mxGeometry>
        </mxCell>
        <mxCell id="UbFrmfJ1SRvg7pQfTYkt-17" value="Nama" style="ellipse;whiteSpace=wrap;html=1;align=center;fillColor=#d5e8d4;strokeColor=#82b366;" parent="UbFrmfJ1SRvg7pQfTYkt-1" vertex="1">
          <mxGeometry x="810" y="270" width="100" height="40" as="geometry" />
        </mxCell>
        <mxCell id="UbFrmfJ1SRvg7pQfTYkt-18" value="" style="endArrow=none;html=1;rounded=0;" parent="UbFrmfJ1SRvg7pQfTYkt-1" edge="1">
          <mxGeometry relative="1" as="geometry">
            <mxPoint x="900" y="220" as="sourcePoint" />
            <mxPoint x="880" y="270" as="targetPoint" />
          </mxGeometry>
        </mxCell>
        <mxCell id="UbFrmfJ1SRvg7pQfTYkt-19" value="Kontak" style="ellipse;whiteSpace=wrap;html=1;align=center;fillColor=#d5e8d4;strokeColor=#82b366;" parent="UbFrmfJ1SRvg7pQfTYkt-1" vertex="1">
          <mxGeometry x="920" y="270" width="100" height="40" as="geometry" />
        </mxCell>
        <mxCell id="UbFrmfJ1SRvg7pQfTYkt-20" value="" style="endArrow=none;html=1;rounded=0;entryX=0;entryY=0;entryDx=0;entryDy=0;" parent="UbFrmfJ1SRvg7pQfTYkt-1" target="UbFrmfJ1SRvg7pQfTYkt-19" edge="1">
          <mxGeometry relative="1" as="geometry">
            <mxPoint x="900" y="220" as="sourcePoint" />
            <mxPoint x="940" y="270" as="targetPoint" />
          </mxGeometry>
        </mxCell>
        <mxCell id="UbFrmfJ1SRvg7pQfTYkt-21" value="Mengajar" style="shape=rhombus;perimeter=rhombusPerimeter;whiteSpace=wrap;html=1;align=center;fillColor=#fff2cc;strokeColor=#d6b656;" parent="UbFrmfJ1SRvg7pQfTYkt-1" vertex="1">
          <mxGeometry x="650" y="330" width="120" height="60" as="geometry" />
        </mxCell>
        <mxCell id="UbFrmfJ1SRvg7pQfTYkt-22" value="Kelompok" style="shape=rhombus;perimeter=rhombusPerimeter;whiteSpace=wrap;html=1;align=center;fillColor=#fff2cc;strokeColor=#d6b656;" parent="UbFrmfJ1SRvg7pQfTYkt-1" vertex="1">
          <mxGeometry x="190" y="330" width="120" height="60" as="geometry" />
        </mxCell>
        <mxCell id="UbFrmfJ1SRvg7pQfTYkt-23" value="Setoran Hafalan" style="rounded=0;whiteSpace=wrap;html=1;fillColor=#dae8fc;strokeColor=#6c8ebf;" parent="UbFrmfJ1SRvg7pQfTYkt-1" vertex="1">
          <mxGeometry x="425" y="30" width="120" height="60" as="geometry" />
        </mxCell>
        <mxCell id="UbFrmfJ1SRvg7pQfTYkt-24" value="Santri" style="ellipse;whiteSpace=wrap;html=1;align=center;fillColor=#d5e8d4;strokeColor=#82b366;" parent="UbFrmfJ1SRvg7pQfTYkt-1" vertex="1">
          <mxGeometry x="350" y="-40" width="100" height="40" as="geometry" />
        </mxCell>
        <mxCell id="UbFrmfJ1SRvg7pQfTYkt-25" value="Pembimbing" style="ellipse;whiteSpace=wrap;html=1;align=center;fillColor=#d5e8d4;strokeColor=#82b366;" parent="UbFrmfJ1SRvg7pQfTYkt-1" vertex="1">
          <mxGeometry x="435" y="-80" width="100" height="40" as="geometry" />
        </mxCell>
        <mxCell id="UbFrmfJ1SRvg7pQfTYkt-26" value="Tanggal" style="ellipse;whiteSpace=wrap;html=1;align=center;fillColor=#d5e8d4;strokeColor=#82b366;" parent="UbFrmfJ1SRvg7pQfTYkt-1" vertex="1">
          <mxGeometry x="520" y="-40" width="100" height="40" as="geometry" />
        </mxCell>
        <mxCell id="UbFrmfJ1SRvg7pQfTYkt-30" value="&lt;div&gt;Item Setoran&lt;/div&gt;&lt;div&gt;(Ayat)&lt;/div&gt;" style="shape=ext;margin=3;double=1;whiteSpace=wrap;html=1;align=center;fillColor=#dae8fc;strokeColor=#6c8ebf;" parent="UbFrmfJ1SRvg7pQfTYkt-1" vertex="1">
          <mxGeometry x="835" y="25" width="130" height="70" as="geometry" />
        </mxCell>
        <mxCell id="UbFrmfJ1SRvg7pQfTYkt-31" value="Memuat" style="shape=rhombus;perimeter=rhombusPerimeter;whiteSpace=wrap;html=1;align=center;fillColor=#fff2cc;strokeColor=#d6b656;" parent="UbFrmfJ1SRvg7pQfTYkt-1" vertex="1">
          <mxGeometry x="650" y="30" width="120" height="60" as="geometry" />
        </mxCell>
        <mxCell id="UbFrmfJ1SRvg7pQfTYkt-32" value="Ayat" style="ellipse;whiteSpace=wrap;html=1;align=center;fillColor=#d5e8d4;strokeColor=#82b366;" parent="UbFrmfJ1SRvg7pQfTYkt-1" vertex="1">
          <mxGeometry x="790" y="-100" width="100" height="40" as="geometry" />
        </mxCell>
        <mxCell id="UbFrmfJ1SRvg7pQfTYkt-33" value="Surat" style="ellipse;whiteSpace=wrap;html=1;align=center;fillColor=#d5e8d4;strokeColor=#82b366;" parent="UbFrmfJ1SRvg7pQfTYkt-1" vertex="1">
          <mxGeometry x="910" y="-100" width="100" height="40" as="geometry" />
        </mxCell>
        <mxCell id="UbFrmfJ1SRvg7pQfTYkt-34" value="" style="endArrow=none;html=1;rounded=0;exitX=0.5;exitY=1;exitDx=0;exitDy=0;entryX=0.5;entryY=0;entryDx=0;entryDy=0;" parent="UbFrmfJ1SRvg7pQfTYkt-1" source="UbFrmfJ1SRvg7pQfTYkt-24" target="UbFrmfJ1SRvg7pQfTYkt-23" edge="1">
          <mxGeometry relative="1" as="geometry">
            <mxPoint x="440" y="50" as="sourcePoint" />
            <mxPoint x="600" y="50" as="targetPoint" />
          </mxGeometry>
        </mxCell>
        <mxCell id="UbFrmfJ1SRvg7pQfTYkt-35" value="" style="endArrow=none;html=1;rounded=0;exitX=0.5;exitY=1;exitDx=0;exitDy=0;entryX=0.5;entryY=0;entryDx=0;entryDy=0;" parent="UbFrmfJ1SRvg7pQfTYkt-1" source="UbFrmfJ1SRvg7pQfTYkt-25" target="UbFrmfJ1SRvg7pQfTYkt-23" edge="1">
          <mxGeometry relative="1" as="geometry">
            <mxPoint x="360" y="-40" as="sourcePoint" />
            <mxPoint x="485" y="40" as="targetPoint" />
          </mxGeometry>
        </mxCell>
        <mxCell id="UbFrmfJ1SRvg7pQfTYkt-36" value="" style="endArrow=none;html=1;rounded=0;entryX=0.5;entryY=0;entryDx=0;entryDy=0;exitX=0.5;exitY=1;exitDx=0;exitDy=0;" parent="UbFrmfJ1SRvg7pQfTYkt-1" source="UbFrmfJ1SRvg7pQfTYkt-26" target="UbFrmfJ1SRvg7pQfTYkt-23" edge="1">
          <mxGeometry relative="1" as="geometry">
            <mxPoint x="435" y="-100" as="sourcePoint" />
            <mxPoint x="485" y="40" as="targetPoint" />
          </mxGeometry>
        </mxCell>
        <mxCell id="UbFrmfJ1SRvg7pQfTYkt-37" value="Keterangan" style="ellipse;whiteSpace=wrap;html=1;align=center;fillColor=#d5e8d4;strokeColor=#82b366;" parent="UbFrmfJ1SRvg7pQfTYkt-1" vertex="1">
          <mxGeometry x="960" y="-40" width="100" height="40" as="geometry" />
        </mxCell>
        <mxCell id="UbFrmfJ1SRvg7pQfTYkt-38" value="Setoran" style="ellipse;whiteSpace=wrap;html=1;align=center;fillColor=#d5e8d4;strokeColor=#82b366;" parent="UbFrmfJ1SRvg7pQfTYkt-1" vertex="1">
          <mxGeometry x="735" y="-40" width="100" height="40" as="geometry" />
        </mxCell>
        <mxCell id="UbFrmfJ1SRvg7pQfTYkt-39" value="" style="endArrow=none;html=1;rounded=0;entryX=0.5;entryY=0;entryDx=0;entryDy=0;" parent="UbFrmfJ1SRvg7pQfTYkt-1" source="UbFrmfJ1SRvg7pQfTYkt-38" target="UbFrmfJ1SRvg7pQfTYkt-30" edge="1">
          <mxGeometry relative="1" as="geometry">
            <mxPoint x="530" y="-20" as="sourcePoint" />
            <mxPoint x="690" y="-20" as="targetPoint" />
          </mxGeometry>
        </mxCell>
        <mxCell id="UbFrmfJ1SRvg7pQfTYkt-40" value="" style="endArrow=none;html=1;rounded=0;entryX=0.5;entryY=0;entryDx=0;entryDy=0;exitX=0.5;exitY=1;exitDx=0;exitDy=0;" parent="UbFrmfJ1SRvg7pQfTYkt-1" source="UbFrmfJ1SRvg7pQfTYkt-32" target="UbFrmfJ1SRvg7pQfTYkt-30" edge="1">
          <mxGeometry relative="1" as="geometry">
            <mxPoint x="705.9301070883043" y="-306.09157144968844" as="sourcePoint" />
            <mxPoint x="825" y="-260" as="targetPoint" />
          </mxGeometry>
        </mxCell>
        <mxCell id="UbFrmfJ1SRvg7pQfTYkt-41" value="" style="endArrow=none;html=1;rounded=0;entryX=0.5;entryY=0;entryDx=0;entryDy=0;exitX=0.5;exitY=1;exitDx=0;exitDy=0;" parent="UbFrmfJ1SRvg7pQfTYkt-1" source="UbFrmfJ1SRvg7pQfTYkt-33" target="UbFrmfJ1SRvg7pQfTYkt-30" edge="1">
          <mxGeometry relative="1" as="geometry">
            <mxPoint x="780" y="-360" as="sourcePoint" />
            <mxPoint x="825" y="-260" as="targetPoint" />
          </mxGeometry>
        </mxCell>
        <mxCell id="UbFrmfJ1SRvg7pQfTYkt-42" value="" style="endArrow=none;html=1;rounded=0;entryX=0.5;entryY=0;entryDx=0;entryDy=0;exitX=0;exitY=1;exitDx=0;exitDy=0;" parent="UbFrmfJ1SRvg7pQfTYkt-1" source="UbFrmfJ1SRvg7pQfTYkt-37" target="UbFrmfJ1SRvg7pQfTYkt-30" edge="1">
          <mxGeometry relative="1" as="geometry">
            <mxPoint x="904.6446609406726" y="-355.85786437626894" as="sourcePoint" />
            <mxPoint x="825" y="-260" as="targetPoint" />
          </mxGeometry>
        </mxCell>
        <mxCell id="UbFrmfJ1SRvg7pQfTYkt-43" value="&lt;div&gt;Menerima &amp;amp; &lt;br&gt;&lt;/div&gt;&lt;div&gt;mengawasi&lt;/div&gt;" style="shape=rhombus;perimeter=rhombusPerimeter;whiteSpace=wrap;html=1;align=center;fillColor=#fff2cc;strokeColor=#d6b656;" parent="UbFrmfJ1SRvg7pQfTYkt-1" vertex="1">
          <mxGeometry x="610" y="150" width="150" height="75" as="geometry" />
        </mxCell>
        <mxCell id="UbFrmfJ1SRvg7pQfTYkt-44" value="Menyetorkan" style="shape=rhombus;perimeter=rhombusPerimeter;whiteSpace=wrap;html=1;align=center;fillColor=#fff2cc;strokeColor=#d6b656;" parent="UbFrmfJ1SRvg7pQfTYkt-1" vertex="1">
          <mxGeometry x="210" y="150" width="150" height="75" as="geometry" />
        </mxCell>
        <mxCell id="UbFrmfJ1SRvg7pQfTYkt-45" value="Kriteria" style="ellipse;whiteSpace=wrap;html=1;align=center;fillColor=#d5e8d4;strokeColor=#82b366;" parent="UbFrmfJ1SRvg7pQfTYkt-1" vertex="1">
          <mxGeometry x="390" y="470" width="100" height="40" as="geometry" />
        </mxCell>
        <mxCell id="UbFrmfJ1SRvg7pQfTYkt-46" value="" style="endArrow=none;html=1;rounded=0;entryX=0.5;entryY=0;entryDx=0;entryDy=0;exitX=0.5;exitY=1;exitDx=0;exitDy=0;" parent="UbFrmfJ1SRvg7pQfTYkt-1" source="UbFrmfJ1SRvg7pQfTYkt-13" target="UbFrmfJ1SRvg7pQfTYkt-45" edge="1">
          <mxGeometry relative="1" as="geometry">
            <mxPoint x="440" y="350" as="sourcePoint" />
            <mxPoint x="600" y="350" as="targetPoint" />
          </mxGeometry>
        </mxCell>
        <mxCell id="UbFrmfJ1SRvg7pQfTYkt-47" value="Kelas" style="ellipse;whiteSpace=wrap;html=1;align=center;fillColor=#d5e8d4;strokeColor=#82b366;" parent="UbFrmfJ1SRvg7pQfTYkt-1" vertex="1">
          <mxGeometry x="130" y="100" width="100" height="40" as="geometry" />
        </mxCell>
        <mxCell id="UbFrmfJ1SRvg7pQfTYkt-48" value="" style="endArrow=none;html=1;rounded=0;exitX=0.5;exitY=0;exitDx=0;exitDy=0;" parent="UbFrmfJ1SRvg7pQfTYkt-1" source="UbFrmfJ1SRvg7pQfTYkt-2" target="UbFrmfJ1SRvg7pQfTYkt-47" edge="1">
          <mxGeometry relative="1" as="geometry">
            <mxPoint x="440" y="230" as="sourcePoint" />
            <mxPoint x="600" y="230" as="targetPoint" />
          </mxGeometry>
        </mxCell>
        <mxCell id="UbFrmfJ1SRvg7pQfTYkt-49" value="Pembimbing" style="ellipse;whiteSpace=wrap;html=1;align=center;fillColor=#d5e8d4;strokeColor=#82b366;" parent="UbFrmfJ1SRvg7pQfTYkt-1" vertex="1">
          <mxGeometry x="500" y="470" width="100" height="40" as="geometry" />
        </mxCell>
        <mxCell id="UbFrmfJ1SRvg7pQfTYkt-50" value="" style="endArrow=none;html=1;rounded=0;entryX=0.361;entryY=-0.012;entryDx=0;entryDy=0;exitX=0.5;exitY=1;exitDx=0;exitDy=0;entryPerimeter=0;" parent="UbFrmfJ1SRvg7pQfTYkt-1" source="UbFrmfJ1SRvg7pQfTYkt-13" target="UbFrmfJ1SRvg7pQfTYkt-49" edge="1">
          <mxGeometry relative="1" as="geometry">
            <mxPoint x="485" y="490" as="sourcePoint" />
            <mxPoint x="450" y="550" as="targetPoint" />
          </mxGeometry>
        </mxCell>
        <mxCell id="UbFrmfJ1SRvg7pQfTYkt-51" value="Link Meeting" style="ellipse;whiteSpace=wrap;html=1;align=center;fillColor=#d5e8d4;strokeColor=#82b366;" parent="UbFrmfJ1SRvg7pQfTYkt-1" vertex="1">
          <mxGeometry x="570" y="410" width="100" height="40" as="geometry" />
        </mxCell>
        <mxCell id="UbFrmfJ1SRvg7pQfTYkt-52" value="" style="endArrow=none;html=1;rounded=0;entryX=0;entryY=0;entryDx=0;entryDy=0;exitX=0.5;exitY=1;exitDx=0;exitDy=0;" parent="UbFrmfJ1SRvg7pQfTYkt-1" source="UbFrmfJ1SRvg7pQfTYkt-13" target="UbFrmfJ1SRvg7pQfTYkt-51" edge="1">
          <mxGeometry relative="1" as="geometry">
            <mxPoint x="485" y="490" as="sourcePoint" />
            <mxPoint x="530" y="570" as="targetPoint" />
          </mxGeometry>
        </mxCell>
        <mxCell id="UbFrmfJ1SRvg7pQfTYkt-56" value="" style="edgeStyle=entityRelationEdgeStyle;fontSize=12;html=1;endArrow=ERone;endFill=1;rounded=0;entryX=0;entryY=0.5;entryDx=0;entryDy=0;exitX=1;exitY=0.5;exitDx=0;exitDy=0;" parent="UbFrmfJ1SRvg7pQfTYkt-1" source="UbFrmfJ1SRvg7pQfTYkt-22" target="UbFrmfJ1SRvg7pQfTYkt-13" edge="1">
          <mxGeometry width="100" height="100" relative="1" as="geometry">
            <mxPoint x="470" y="370" as="sourcePoint" />
            <mxPoint x="570" y="270" as="targetPoint" />
          </mxGeometry>
        </mxCell>
        <mxCell id="UbFrmfJ1SRvg7pQfTYkt-57" value="" style="edgeStyle=entityRelationEdgeStyle;fontSize=12;html=1;endArrow=ERoneToMany;rounded=0;entryX=1;entryY=0.75;entryDx=0;entryDy=0;" parent="UbFrmfJ1SRvg7pQfTYkt-1" source="UbFrmfJ1SRvg7pQfTYkt-22" target="UbFrmfJ1SRvg7pQfTYkt-2" edge="1">
          <mxGeometry width="100" height="100" relative="1" as="geometry">
            <mxPoint x="470" y="370" as="sourcePoint" />
            <mxPoint x="570" y="270" as="targetPoint" />
          </mxGeometry>
        </mxCell>
        <mxCell id="UbFrmfJ1SRvg7pQfTYkt-59" value="" style="edgeStyle=entityRelationEdgeStyle;fontSize=12;html=1;endArrow=ERoneToMany;rounded=0;entryX=0;entryY=0.5;entryDx=0;entryDy=0;exitX=1;exitY=0.5;exitDx=0;exitDy=0;" parent="UbFrmfJ1SRvg7pQfTYkt-1" source="UbFrmfJ1SRvg7pQfTYkt-44" target="UbFrmfJ1SRvg7pQfTYkt-23" edge="1">
          <mxGeometry width="100" height="100" relative="1" as="geometry">
            <mxPoint x="200" y="380" as="sourcePoint" />
            <mxPoint x="120" y="210" as="targetPoint" />
          </mxGeometry>
        </mxCell>
        <mxCell id="UbFrmfJ1SRvg7pQfTYkt-60" value="" style="edgeStyle=entityRelationEdgeStyle;fontSize=12;html=1;endArrow=ERoneToMany;rounded=0;exitX=1;exitY=0.5;exitDx=0;exitDy=0;" parent="UbFrmfJ1SRvg7pQfTYkt-1" source="UbFrmfJ1SRvg7pQfTYkt-31" target="UbFrmfJ1SRvg7pQfTYkt-30" edge="1">
          <mxGeometry width="100" height="100" relative="1" as="geometry">
            <mxPoint x="370" y="142.5" as="sourcePoint" />
            <mxPoint x="435" y="70" as="targetPoint" />
          </mxGeometry>
        </mxCell>
        <mxCell id="UbFrmfJ1SRvg7pQfTYkt-61" value="" style="edgeStyle=entityRelationEdgeStyle;fontSize=12;html=1;endArrow=ERone;endFill=1;rounded=0;entryX=1;entryY=0.5;entryDx=0;entryDy=0;exitX=0;exitY=0.5;exitDx=0;exitDy=0;" parent="UbFrmfJ1SRvg7pQfTYkt-1" source="UbFrmfJ1SRvg7pQfTYkt-31" target="UbFrmfJ1SRvg7pQfTYkt-23" edge="1">
          <mxGeometry width="100" height="100" relative="1" as="geometry">
            <mxPoint x="220" y="142.5" as="sourcePoint" />
            <mxPoint x="120" y="195" as="targetPoint" />
          </mxGeometry>
        </mxCell>
        <mxCell id="UbFrmfJ1SRvg7pQfTYkt-62" value="" style="edgeStyle=entityRelationEdgeStyle;fontSize=12;html=1;endArrow=ERone;endFill=1;rounded=0;entryX=0;entryY=0.5;entryDx=0;entryDy=0;exitX=1;exitY=0.5;exitDx=0;exitDy=0;" parent="UbFrmfJ1SRvg7pQfTYkt-1" source="UbFrmfJ1SRvg7pQfTYkt-43" target="UbFrmfJ1SRvg7pQfTYkt-12" edge="1">
          <mxGeometry width="100" height="100" relative="1" as="geometry">
            <mxPoint x="640" y="-60" as="sourcePoint" />
            <mxPoint x="555" y="70" as="targetPoint" />
          </mxGeometry>
        </mxCell>
        <mxCell id="UbFrmfJ1SRvg7pQfTYkt-63" value="" style="edgeStyle=entityRelationEdgeStyle;fontSize=12;html=1;endArrow=ERoneToMany;rounded=0;entryX=1;entryY=0.75;entryDx=0;entryDy=0;exitX=0;exitY=0.5;exitDx=0;exitDy=0;" parent="UbFrmfJ1SRvg7pQfTYkt-1" source="UbFrmfJ1SRvg7pQfTYkt-43" target="UbFrmfJ1SRvg7pQfTYkt-23" edge="1">
          <mxGeometry width="100" height="100" relative="1" as="geometry">
            <mxPoint x="370" y="142.5" as="sourcePoint" />
            <mxPoint x="435" y="70" as="targetPoint" />
          </mxGeometry>
        </mxCell>
        <mxCell id="UbFrmfJ1SRvg7pQfTYkt-64" value="" style="edgeStyle=entityRelationEdgeStyle;fontSize=12;html=1;endArrow=ERone;endFill=1;rounded=0;entryX=0;entryY=0.75;entryDx=0;entryDy=0;exitX=1;exitY=0;exitDx=0;exitDy=0;" parent="UbFrmfJ1SRvg7pQfTYkt-1" source="UbFrmfJ1SRvg7pQfTYkt-21" target="UbFrmfJ1SRvg7pQfTYkt-12" edge="1">
          <mxGeometry width="100" height="100" relative="1" as="geometry">
            <mxPoint x="722.5" y="161.25" as="sourcePoint" />
            <mxPoint x="810" y="210" as="targetPoint" />
          </mxGeometry>
        </mxCell>
        <mxCell id="UbFrmfJ1SRvg7pQfTYkt-65" value="" style="edgeStyle=entityRelationEdgeStyle;fontSize=12;html=1;endArrow=ERone;endFill=1;rounded=0;exitX=0;exitY=0.5;exitDx=0;exitDy=0;entryX=1;entryY=0.5;entryDx=0;entryDy=0;" parent="UbFrmfJ1SRvg7pQfTYkt-1" source="UbFrmfJ1SRvg7pQfTYkt-21" target="UbFrmfJ1SRvg7pQfTYkt-13" edge="1">
          <mxGeometry width="100" height="100" relative="1" as="geometry">
            <mxPoint x="730" y="335" as="sourcePoint" />
            <mxPoint x="620" y="480" as="targetPoint" />
          </mxGeometry>
        </mxCell>
        <mxCell id="fWiKy1zXSHDiEbJFOG4I-1" value="" style="edgeStyle=entityRelationEdgeStyle;fontSize=12;html=1;endArrow=ERone;endFill=1;rounded=0;entryX=1;entryY=0.5;entryDx=0;entryDy=0;exitX=0;exitY=0.5;exitDx=0;exitDy=0;" edge="1" parent="UbFrmfJ1SRvg7pQfTYkt-1" source="UbFrmfJ1SRvg7pQfTYkt-44" target="UbFrmfJ1SRvg7pQfTYkt-2">
          <mxGeometry width="100" height="100" relative="1" as="geometry">
            <mxPoint x="200" y="260" as="sourcePoint" />
            <mxPoint x="240" y="140" as="targetPoint" />
          </mxGeometry>
        </mxCell>
      </root>
    </mxGraphModel>
  </diagram>
</mxfile>
